Coordinates
version=1
nRows=19
nColumns=33
inDegrees=yes

Units are S.I. units (second, meters, Newtons, ...)
Angles are in degrees.

endheader
time	ground_thorax_rot_x	ground_thorax_rot_y	ground_thorax_rot_z	ground_thorax_tx	ground_thorax_ty	ground_thorax_tz	clav_prot_r	clav_elev_r	scapula_abduction_r	scapula_elevation_r	scapula_upward_rot_r	scapula_winging_r	shoulder_elv_r	plane_of_elev_r	axial_rot_r	elbow_flexion_r	pro_sup_r	wrist_flex_r	wrist_dev_r	clav_prot_l	clav_elev_l	scapula_abduction_l	scapula_elevation_l	scapula_upward_rot_l	scapula_winging_l	shoulder_elv_l	plane_of_elev_l	axial_rot_l	elbow_flexion_l	pro_sup_l	wrist_flex_l	wrist_dev_l
      2.41000000	     39.69940844	     12.02333655	     15.37740588	   -164.45208616	    812.71029291	      5.04479777	     13.66857729	     42.58239412	     41.67582163	     45.00000000	    -22.60275900	  -5490.72116577	  -2096.38678405	     31.95609493	     50.86834349	   2891.72264891	     14.12326317	     19.21602442	     10.06393956	      7.24724633	    -45.00000000	    -38.31998113	     45.00000000	    -45.00000000	    811.09781338	  -2251.47046741	    133.94912274	   -179.99999979	   -349.61023472	     34.35766236	      7.76954956	    -21.91111267
      2.42000000	     39.71740578	     11.89368961	     15.24872715	   -166.70559670	    814.21520568	      4.92174178	     13.61066927	     42.31557698	     41.66625362	     45.00000000	    -22.78934148	  -5490.80510636	  -2096.24285045	     32.03604432	     50.77692115	   2891.74133336	     13.88630713	     19.24204962	      9.96966429	      7.32858365	    -45.00000000	    -38.28357224	     45.00000000	    -45.00000000	    811.40723180	  -2251.33648651	    133.85847406	   -179.99999979	   -349.54652360	     34.28720212	      7.68577241	    -21.98286337
      2.43000000	     39.74730752	     11.78295884	     15.08849026	   -168.93792215	    815.71401038	      4.80366283	     13.55120404	     42.36249713	     41.59349331	     45.00000000	    -22.81618052	  -5490.86702521	  -2096.03350604	     32.07733662	     50.70744075	   2891.79873862	     13.65036548	     19.27593545	      9.92228808	      7.40486920	    -45.00000000	    -38.32974540	     45.00000000	    -45.00000000	    811.60637126	  -2251.20296962	    133.91497458	   -179.99999979	   -349.43492536	     34.26105048	      7.61466634	    -22.06509240
      2.44000000	     39.79040575	     11.68088686	     14.89631215	   -171.14686042	    817.20340448	      4.68953241	     13.47328093	     42.45709012	     41.50898147	     45.00000000	    -22.80109845	  -5490.93555394	  -2095.87769305	     32.08346111	     50.66138852	   2891.84772398	     13.42293317	     19.31137167	      9.88183593	      7.43313210	    -45.00000000	    -38.38128504	     45.00000000	    -45.00000000	    811.75548448	  -2251.07677221	    133.97676690	   -179.99999979	   -349.33556210	     34.26462460	      7.54343220	    -22.15442724
      2.45000000	     39.84938725	     11.53900996	     14.73018929	   -173.33185413	    818.67964455	      4.57814997	     13.39803863	     42.28905577	     41.49720769	     45.00000000	    -22.88604532	  -5491.02238021	  -2095.74028173	     32.14657421	     50.63682494	   2891.85420954	     13.18408292	     19.33553269	      9.79145958	      7.50065070	    -45.00000000	    -38.41893705	     45.00000000	    -45.00000000	    812.02157805	  -2250.97288858	    133.94481559	   -179.99999979	   -349.26062883	     34.28896272	      7.45619297	    -22.23994934
      2.46000000	     39.89627987	     11.42241224	     14.52140940	   -175.49081680	    820.13663090	      4.46832681	     13.32133837	     42.32665205	     41.45732502	     45.00000000	    -22.84398404	  -5491.11588025	  -2095.61981722	     32.11418452	     50.53438536	   2891.87103268	     12.94658779	     19.36647820	      9.74898496	      7.50643426	    -45.00000000	    -38.50804310	     45.00000000	    -45.00000000	    812.17540423	  -2250.85414584	    133.99893721	   -179.99999979	   -349.16856814	     34.35498678	      7.38681257	    -22.34043734
      2.47000000	     39.92293423	     11.29474501	     14.33766209	   -177.62627424	    821.57095332	      4.35880537	     13.24399237	     42.29788706	     41.42017465	     45.00000000	    -22.86206610	  -5491.19114343	  -2095.54223979	     32.10249179	     50.47708552	   2891.88980917	     12.71142043	     19.39488205	      9.67396036	      7.53053351	    -45.00000000	    -38.59880031	     45.00000000	    -45.00000000	    812.36059710	  -2250.77690344	    134.05524846	   -179.99999979	   -349.10430610	     34.45231650	      7.31920162	    -22.43764766
      2.48000000	     39.97353395	     11.14433088	     14.18436352	   -179.73683677	    822.97669869	      4.24853194	     13.18248218	     42.13660796	     41.39218420	     45.00000000	    -23.00559651	  -5491.25129206	  -2095.36434150	     32.20712891	     50.50522027	   2891.93019886	     12.47044454	     19.42421918	      9.57786550	      7.60626910	    -45.00000000	    -38.56903224	     45.00000000	    -45.00000000	    812.62471588	  -2250.66243864	    134.02331009	   -179.99999979	   -349.01639682	     34.55592065	      7.20812178	    -22.51157978
      2.49000000	     40.01481889	     11.01522732	     14.01702040	   -181.82308336	    824.34999653	      4.13642217	     13.13599040	     42.06133298	     41.33153551	     45.00000000	    -23.11510669	  -5491.28864081	  -2095.24653247	     32.22525746	     50.40742473	   2891.93975538	     12.21899498	     19.44439891	      9.50994469	      7.68030778	    -45.00000000	    -38.59730334	     45.00000000	    -45.00000000	    812.82997870	  -2250.58664006	    134.03302552	   -179.99999979	   -348.94002411	     34.72107216	      7.13771411	    -22.60144953
      2.50000000	     40.06026601	     10.89447711	     13.83275971	   -183.88166262	    825.68585840	      4.02167944	     13.06951150	     42.02707255	     41.27435000	     45.00000000	    -23.15623027	  -5491.34936152	  -2095.11864633	     32.24780389	     50.37364786	   2891.97099092	     11.98132597	     19.46971312	      9.43123499	      7.73279252	    -45.00000000	    -38.64183041	     45.00000000	    -45.00000000	    813.03489377	  -2250.49815170	    134.06349479	   -179.99999979	   -348.85483539	     34.92121522	      7.06132102	    -22.69227244
      2.51000000	     40.09635433	     10.78430964	     13.66215981	   -185.91319111	    826.98270527	      3.90359019	     13.03336429	     41.89167770	     41.20777740	     45.00000000	    -23.36414254	  -5491.35626869	  -2094.98140838	     32.32351768	     50.34036724	   2892.00223039	     11.74947849	     19.48997268	      9.34955630	      7.81473491	    -45.00000000	    -38.61872113	     45.00000000	    -45.00000000	    813.26164752	  -2250.44213716	    134.05629958	   -179.99999979	   -348.78652658	     35.15185253	      6.96773611	    -22.76363116
      2.52000000	     40.14612520	     10.65406028	     13.47569214	   -187.91731456	    828.23920586	      3.78178661	     12.94523729	     41.83753447	     41.18341052	     45.00000000	    -23.31146537	  -5491.48050256	  -2094.90851951	     32.28203573	     50.25431914	   2892.01717533	     11.55085149	     19.51205447	      9.25334764	      7.82334638	    -45.00000000	    -38.68718388	     45.00000000	    -45.00000000	    813.46003117	  -2250.36420184	    134.07973664	   -179.99999979	   -348.68171452	     35.39011089	      6.89279802	    -22.86058805
      2.53000000	     40.17755885	     10.50592635	     13.30510916	   -189.89456553	    829.45482258	      3.65631875	     12.91840947	     41.75565752	     41.08885126	     45.00000000	    -23.54153166	  -5491.44203037	  -2094.74169597	     32.39358586	     50.28614086	   2892.04407669	     11.37188400	     19.52736787	      9.17324298	      7.93929515	    -45.00000000	    -38.68369856	     45.00000000	    -45.00000000	    813.65975050	  -2250.31188792	    134.09348844	   -179.99999979	   -348.66223276	     35.66708135	      6.80819278	    -22.91260096
      2.54000000	     40.23766441	     10.39398882	     13.10686859	   -191.83850406	    830.62572834	      3.52786566	     12.82883379	     41.69648303	     41.08207838	     45.00000000	    -23.43675247	  -5491.57331031	  -2094.72234710	     32.33277937	     50.14792234	   2892.05144515	     11.21291646	     19.54609189	      9.04990182	      7.92136303	    -45.00000000	    -38.76993750	     45.00000000	    -45.00000000	    813.86924324	  -2250.25724019	    134.13096832	   -179.99999979	   -348.55553526	     35.92281023	      6.74173505	    -23.01012775
      2.55000000	     40.24266744	     10.29880333	     13.01036002	   -193.75620383	    831.75671350	      3.39687259	     12.82035390	     41.61439637	     40.98004147	     45.00000000	    -23.72965408	  -5491.53376286	  -2094.55424315	     32.42322222	     50.13022472	   2892.07914197	     11.08302645	     19.55765969	      8.94525422	      8.02250437	    -45.00000000	    -38.74394191	     45.00000000	    -45.00000000	    814.06813131	  -2250.23079423	    134.18714230	   -179.99999979	   -348.53145523	     36.19032643	      6.65352709	    -23.04845837
      2.56000000	     40.32500569	     10.13230944	     12.73139614	   -195.64452591	    832.84775324	      3.26501451	     12.72259398	     41.54070290	     40.95237414	     45.00000000	    -23.61747468	  -5491.65801659	  -2094.56210193	     32.37627695	     49.98290856	   2892.09513624	     10.97268195	     19.57885114	      8.80943273	      8.01070716	    -45.00000000	    -38.83382807	     45.00000000	    -45.00000000	    814.25241094	  -2250.22619841	    134.17950488	   -179.99999979	   -348.42878555	     36.43268832	      6.60288788	    -23.14488148
      2.57000000	     40.30806343	     10.05367358	     12.62255151	   -197.50516747	    833.90230347	      3.13488727	     12.69973433	     41.52836450	     40.82020396	     45.00000000	    -23.89361336	  -5491.60117887	  -2094.39399294	     32.46183100	     50.07150507	   2892.12141744	     10.90802265	     19.59033663	      8.70059703	      8.09324209	    -45.00000000	    -38.77529615	     45.00000000	    -45.00000000	    814.39255128	  -2250.15135347	    134.22375977	   -179.99999979	   -348.44210933	     36.66020295	      6.50760619	    -23.15538846
      2.58000000	     40.32627615	      9.97221433	     12.53458906	   -199.33018339	    834.91930332	      3.01084395	     12.68969841	     41.46505195	     40.71551011	     45.00000000	    -24.19622524	  -5491.53481267	  -2094.19677884	     32.56593250	     50.12310955	   2892.15293232	     10.84971608	     19.60541545	      8.63462803	      8.22557052	    -45.00000000	    -38.78160667	     45.00000000	    -45.00000000	    814.57457978	  -2250.15704734	    134.31961751	   -179.99999979	   -348.46119033	     36.90838896	      6.42592801	    -23.17010037
      2.59000000	     40.37141008	      9.82120760	     12.30948755	   -201.11509131	    835.90009499	      2.89789731	     12.60838216	     41.39004909	     40.67266528	     45.00000000	    -24.15740773	  -5491.62377076	  -2094.17880153	     32.53562238	     49.92231294	   2892.17013272	     10.77892215	     19.62766644	      8.47820039	      8.20193994	    -45.00000000	    -38.79450473	     45.00000000	    -45.00000000	    814.77226111	  -2250.12853511	    134.30876783	   -179.99999979	   -348.37050732	     37.11664953	      6.36133566	    -23.24346303
